<mxfile host="app.diagrams.net" modified="2021-11-28T13:57:15.362Z" agent="5.0 (Windows NT 10.0; Win64; x64) AppleWebKit/537.36 (KHTML, like Gecko) Chrome/96.0.4664.45 Safari/537.36" etag="EzQCGbflEyVdgMEP6Png" version="15.8.6" type="github">
  <diagram name="Example" id="c7488fd3-1785-93aa-aadb-54a6760d102a">
    <mxGraphModel dx="1038" dy="555" grid="1" gridSize="10" guides="1" tooltips="1" connect="1" arrows="1" fold="1" page="1" pageScale="1" pageWidth="1100" pageHeight="850" background="none" math="0" shadow="0">
      <root>
        <mxCell id="0" />
        <mxCell id="1" style="" parent="0" />
        <mxCell id="S8HlAuciJZGZXTFng0mN-30" style="edgeStyle=orthogonalEdgeStyle;rounded=0;orthogonalLoop=1;jettySize=auto;html=1;exitX=1;exitY=0.5;exitDx=0;exitDy=0;entryX=0;entryY=0.5;entryDx=0;entryDy=0;fontColor=#0000CC;" parent="1" target="S8HlAuciJZGZXTFng0mN-20" edge="1">
          <mxGeometry relative="1" as="geometry">
            <mxPoint x="140" y="365" as="sourcePoint" />
          </mxGeometry>
        </mxCell>
        <mxCell id="S8HlAuciJZGZXTFng0mN-31" value="Push a Data Layer" style="edgeLabel;html=1;align=center;verticalAlign=middle;resizable=0;points=[];fontColor=#000000;" parent="S8HlAuciJZGZXTFng0mN-30" vertex="1" connectable="0">
          <mxGeometry x="-0.1575" y="-1" relative="1" as="geometry">
            <mxPoint as="offset" />
          </mxGeometry>
        </mxCell>
        <mxCell id="S8HlAuciJZGZXTFng0mN-34" style="edgeStyle=orthogonalEdgeStyle;rounded=0;orthogonalLoop=1;jettySize=auto;html=1;exitX=0.5;exitY=0;exitDx=0;exitDy=0;fontColor=#000000;" parent="1" source="S8HlAuciJZGZXTFng0mN-20" target="S8HlAuciJZGZXTFng0mN-55" edge="1">
          <mxGeometry relative="1" as="geometry">
            <mxPoint x="400" y="170" as="targetPoint" />
          </mxGeometry>
        </mxCell>
        <mxCell id="S8HlAuciJZGZXTFng0mN-35" value="Trigger" style="edgeLabel;html=1;align=center;verticalAlign=middle;resizable=0;points=[];fontColor=#000000;" parent="S8HlAuciJZGZXTFng0mN-34" vertex="1" connectable="0">
          <mxGeometry x="0.1594" y="2" relative="1" as="geometry">
            <mxPoint x="2" y="5" as="offset" />
          </mxGeometry>
        </mxCell>
        <mxCell id="S8HlAuciJZGZXTFng0mN-20" value="&lt;b&gt;Data Layer&lt;/b&gt;" style="whiteSpace=wrap;html=1;align=center;sketch=0;strokeColor=#d6b656;fillColor=#fff2cc;labelBackgroundColor=none;" parent="1" vertex="1">
          <mxGeometry x="350" y="345" width="100" height="40" as="geometry" />
        </mxCell>
        <mxCell id="S8HlAuciJZGZXTFng0mN-45" style="edgeStyle=orthogonalEdgeStyle;rounded=0;orthogonalLoop=1;jettySize=auto;html=1;entryX=0;entryY=0.5;entryDx=0;entryDy=0;fontColor=#000000;exitX=1;exitY=0.5;exitDx=0;exitDy=0;" parent="1" source="S8HlAuciJZGZXTFng0mN-92" target="S8HlAuciJZGZXTFng0mN-99" edge="1">
          <mxGeometry relative="1" as="geometry">
            <mxPoint x="441.80999999999995" y="97.75" as="sourcePoint" />
            <mxPoint x="605" y="97.75" as="targetPoint" />
          </mxGeometry>
        </mxCell>
        <mxCell id="S8HlAuciJZGZXTFng0mN-61" style="edgeStyle=orthogonalEdgeStyle;rounded=0;orthogonalLoop=1;jettySize=auto;html=1;exitX=1;exitY=0.5;exitDx=0;exitDy=0;fontColor=#000000;entryX=0;entryY=0.5;entryDx=0;entryDy=0;" parent="1" source="S8HlAuciJZGZXTFng0mN-99" target="S8HlAuciJZGZXTFng0mN-101" edge="1">
          <mxGeometry relative="1" as="geometry">
            <mxPoint x="833.3699999999999" y="97.75" as="targetPoint" />
            <mxPoint x="675" y="97.75" as="sourcePoint" />
          </mxGeometry>
        </mxCell>
        <mxCell id="S8HlAuciJZGZXTFng0mN-71" style="edgeStyle=orthogonalEdgeStyle;rounded=0;orthogonalLoop=1;jettySize=auto;html=1;exitX=0.5;exitY=1;exitDx=0;exitDy=0;entryX=0.5;entryY=0;entryDx=0;entryDy=0;fontColor=#000000;" parent="1" source="S8HlAuciJZGZXTFng0mN-68" target="S8HlAuciJZGZXTFng0mN-14" edge="1">
          <mxGeometry relative="1" as="geometry" />
        </mxCell>
        <mxCell id="S8HlAuciJZGZXTFng0mN-72" value="Trigger" style="edgeLabel;html=1;align=center;verticalAlign=middle;resizable=0;points=[];fontColor=#000000;" parent="S8HlAuciJZGZXTFng0mN-71" vertex="1" connectable="0">
          <mxGeometry x="-0.1209" y="2" relative="1" as="geometry">
            <mxPoint as="offset" />
          </mxGeometry>
        </mxCell>
        <mxCell id="S8HlAuciJZGZXTFng0mN-74" style="edgeStyle=orthogonalEdgeStyle;rounded=0;orthogonalLoop=1;jettySize=auto;html=1;exitX=0.5;exitY=1;exitDx=0;exitDy=0;entryX=1;entryY=0.5;entryDx=0;entryDy=0;fontColor=#000000;" parent="1" source="S8HlAuciJZGZXTFng0mN-40" target="S8HlAuciJZGZXTFng0mN-20" edge="1">
          <mxGeometry relative="1" as="geometry" />
        </mxCell>
        <mxCell id="S8HlAuciJZGZXTFng0mN-75" value="Get value" style="edgeLabel;html=1;align=center;verticalAlign=middle;resizable=0;points=[];fontColor=#000000;" parent="S8HlAuciJZGZXTFng0mN-74" vertex="1" connectable="0">
          <mxGeometry x="0.4267" y="3" relative="1" as="geometry">
            <mxPoint y="-3" as="offset" />
          </mxGeometry>
        </mxCell>
        <mxCell id="S8HlAuciJZGZXTFng0mN-13" value="&lt;b&gt;Type:&lt;/b&gt; Custom HTML" style="text;html=1;strokeColor=none;fillColor=none;align=center;verticalAlign=middle;whiteSpace=wrap;rounded=0;sketch=1;" parent="1" vertex="1">
          <mxGeometry x="10" y="415" width="180" height="30" as="geometry" />
        </mxCell>
        <mxCell id="S8HlAuciJZGZXTFng0mN-14" value="Login - Event Listener" style="text;html=1;strokeColor=none;fillColor=none;align=center;verticalAlign=middle;whiteSpace=wrap;rounded=0;sketch=1;" parent="1" vertex="1">
          <mxGeometry x="20" y="315" width="160" height="30" as="geometry" />
        </mxCell>
        <mxCell id="S8HlAuciJZGZXTFng0mN-79" value="" style="shape=image;verticalLabelPosition=bottom;verticalAlign=top;imageAspect=0;aspect=fixed;image=data:image/svg+xml,PHN2ZyB4bWxucz0iaHR0cDovL3d3dy53My5vcmcvMjAwMC9zdmciIHdpZHRoPSIxMzkiIGhlaWdodD0iMTM5IiB2aWV3Qm94PSIwIDAgMTM5IDEzOSI+JiN4YTsgIDxnIGlkPSJHVE0iIHRyYW5zZm9ybT0idHJhbnNsYXRlKC02NzIgLTgwKSI+JiN4YTsgICAgPGcgaWQ9IkdUTS0yIiBkYXRhLW5hbWU9IkdUTSIgdHJhbnNmb3JtPSJ0cmFuc2xhdGUoNjc5Ljk5NyA4OC4wMDIpIj4mI3hhOyAgICAgIDxwYXRoIGlkPSJQYXRoXzEiIGRhdGEtbmFtZT0iUGF0aCAxIiBkPSJNNzIuMTMsMTE4LjIyLDUwLjgsOTYuODZsNDUuODMtNDYuMywyMS43MiwyMS43Mkw3Mi4xMywxMTguMjJaIiB0cmFuc2Zvcm09InRyYW5zbGF0ZSgwLjEzMyAwLjEwOCkiIGZpbGw9IiM4YWI0ZjgiLz4mI3hhOyAgICAgIDxwYXRoIGlkPSJQYXRoXzIiIGRhdGEtbmFtZT0iUGF0aCAyIiBkPSJNNzIuMjksMjYuMjUxLDUwLjU2LDQuNSw0LjUsNTAuNmExNS4zNzUsMTUuMzc1LDAsMCwwLDAsMjEuNzMxaDBsNDYuMDYsNDYuMSwyMS4zMS0yMS40MkwzNy4wNyw2MS41WiIgdHJhbnNmb3JtPSJ0cmFuc2xhdGUoMCAwKSIgZmlsbD0iIzQyODVmNCIvPiYjeGE7ICAgICAgPHBhdGggaWQ9IlBhdGhfMyIgZGF0YS1uYW1lPSJQYXRoIDMiIGQ9Ik0xMTguMzUsNTAuNTYsNzIuMjksNC41QTE1LjM2MiwxNS4zNjIsMCwxLDAsNTAuNTYsMjYuMjJMOTYuNjUsNzIuMjhhMTUuMzU5LDE1LjM1OSwwLDEsMCwyMS43MjEtMjEuNzIxWiIgdHJhbnNmb3JtPSJ0cmFuc2xhdGUoMC4xMzMpIiBmaWxsPSIjOGFiNGY4Ii8+JiN4YTsgICAgICA8cGF0aCBpZD0iUGF0aF80IiBkYXRhLW5hbWU9IlBhdGggNCIgZD0iTTc2LjQ4LDEwNy42NmExNS4yMywxNS4yMywwLDEsMC0xNS4yMiwxNS4yMywxNS4yMywxNS4yMywwLDAsMCwxNS4yMi0xNS4yM1oiIHRyYW5zZm9ybT0idHJhbnNsYXRlKDAuMDY2IDAuMTA4KSIgZmlsbD0iIzI0NmZkYiIvPiYjeGE7ICAgIDwvZz4mI3hhOyAgICA8cmVjdCBpZD0iQm91bmRlciIgd2lkdGg9IjEzOSIgaGVpZ2h0PSIxMzkiIHRyYW5zZm9ybT0idHJhbnNsYXRlKDY3MiA4MCkiIGZpbGw9Im5vbmUiLz4mI3hhOyAgPC9nPiYjeGE7PC9zdmc+;labelBackgroundColor=none;labelBorderColor=none;sketch=0;fontColor=#000000;strokeColor=default;fillColor=#333333;gradientColor=none;" parent="1" vertex="1">
          <mxGeometry x="60" y="340" width="80" height="80" as="geometry" />
        </mxCell>
        <mxCell id="S8HlAuciJZGZXTFng0mN-95" value="" style="group" parent="1" vertex="1" connectable="0">
          <mxGeometry x="21" y="20" width="170" height="129" as="geometry" />
        </mxCell>
        <mxCell id="S8HlAuciJZGZXTFng0mN-68" value="&lt;b&gt;Type:&lt;/b&gt; Window Loaded" style="text;html=1;strokeColor=none;fillColor=none;align=center;verticalAlign=middle;whiteSpace=wrap;rounded=0;labelBackgroundColor=none;labelBorderColor=none;sketch=0;fontColor=#000000;" parent="S8HlAuciJZGZXTFng0mN-95" vertex="1">
          <mxGeometry x="15" y="99" width="140" height="30" as="geometry" />
        </mxCell>
        <mxCell id="S8HlAuciJZGZXTFng0mN-91" value="" style="shape=image;verticalLabelPosition=bottom;verticalAlign=top;imageAspect=0;aspect=fixed;image=data:image/svg+xml,PHN2ZyB4bWxucz0iaHR0cDovL3d3dy53My5vcmcvMjAwMC9zdmciIHdpZHRoPSIxMzkiIGhlaWdodD0iMTM5IiB2aWV3Qm94PSIwIDAgMTM5IDEzOSI+JiN4YTsgIDxnIGlkPSJUcmlnZ2VyIiB0cmFuc2Zvcm09InRyYW5zbGF0ZSgtMzg5IC0xNDQpIj4mI3hhOyAgICA8ZyBpZD0iVHJpZ2dlci0yIiBkYXRhLW5hbWU9IlRyaWdnZXIiIHRyYW5zZm9ybT0idHJhbnNsYXRlKC0yMTEgLTMxMykiPiYjeGE7ICAgICAgPGcgaWQ9IkludGVyc2VjdGlvbiIgdHJhbnNmb3JtPSJ0cmFuc2xhdGUoNjAyIDQ3MykiIGZpbGw9IiMzMzMiPiYjeGE7ICAgICAgICA8cGF0aCBkPSJNIDUzLjk5OTk5NjE4NTMwMjczIDgzLjAwMDMwNTE3NTc4MTI1IEMgNDkuMDAwMjI4ODgxODM1OTQgODMuMDAwMzA1MTc1NzgxMjUgNDQuMTE3MjEwMzg4MTgzNTkgODIuMTc0MTE4MDQxOTkyMTkgMzkuNDU4NzQwMjM0Mzc1IDgwLjU0MjEyMTg4NzIwNzAzIEMgMzcuODI2NjE4MTk0NTgwMDggNzUuODgzMjA5MjI4NTE1NjIgMzcuMDAwMzA4OTkwNDc4NTIgNzAuOTk5Njg3MTk0ODI0MjIgMzcuMDAwMzA4OTkwNDc4NTIgNjUuOTk5NzAyNDUzNjEzMjggQyAzNy4wMDAzMDg5OTA0Nzg1MiA2MC4wNTgwMTM5MTYwMTU2MiAzOC4xNjMwOTM1NjY4OTQ1MyA1NC4yOTYxODgzNTQ0OTIxOSA0MC40NTYzODI3NTE0NjQ4NCA0OC44NzQyNjM3NjM0Mjc3MyBDIDQyLjY3MjI4MzE3MjYwNzQyIDQzLjYzNTI4ODIzODUyNTM5IDQ1Ljg0NTM3MTI0NjMzNzg5IDM4LjkyOTM2MzI1MDczMjQyIDQ5Ljg4NzUxOTgzNjQyNTc4IDM0Ljg4NzIxNDY2MDY0NDUzIEMgNTMuOTI5NjY4NDI2NTEzNjcgMzAuODQ1MDY0MTYzMjA4MDEgNTguNjM1NTgxOTcwMjE0ODQgMjcuNjcxOTc3OTk2ODI2MTcgNjMuODc0NTU3NDk1MTE3MTkgMjUuNDU2MDc3NTc1NjgzNTkgQyA2OS4yOTY0ODU5MDA4Nzg5MSAyMy4xNjI3OTAyOTg0NjE5MSA3NS4wNTgzMTkwOTE3OTY4OCAyMi4wMDAwMDE5MDczNDg2MyA4MC45OTk5OTIzNzA2MDU0NyAyMi4wMDAwMDE5MDczNDg2MyBDIDg1Ljk5OTc3ODc0NzU1ODU5IDIyLjAwMDAwMTkwNzM0ODYzIDkwLjg4MjkwNDA1MjczNDM4IDIyLjgyNjIyNzE4ODExMDM1IDk1LjU0MTQ1MDUwMDQ4ODI4IDI0LjQ1ODI1MDA0NTc3NjM3IEMgOTcuMTczNDg0ODAyMjQ2MDkgMjkuMTE2ODA5ODQ0OTcwNyA5Ny45OTk3MTAwODMwMDc4MSAzMy45OTk5Mjc1MjA3NTE5NSA5Ny45OTk3MTAwODMwMDc4MSAzOC45OTk3MDI0NTM2MTMyOCBDIDk3Ljk5OTcxMDA4MzAwNzgxIDQ0Ljk0MTYxNjA1ODM0OTYxIDk2LjgzNjkwNjQzMzEwNTQ3IDUwLjcwMzYyODU0MDAzOTA2IDk0LjU0MzYxNzI0ODUzNTE2IDU2LjEyNTY5MDQ2MDIwNTA4IEMgOTIuMzI3NzIwNjQyMDg5ODQgNjEuMzY0Nzc2NjExMzI4MTIgODkuMTU0NjE3MzA5NTcwMzEgNjYuMDcwNzkzMTUxODU1NDcgODUuMTEyNDcyNTM0MTc5NjkgNzAuMTEyOTkxMzMzMDA3ODEgQyA4MS4wNzAzMzUzODgxODM1OSA3NC4xNTUxNzQyNTUzNzEwOSA3Ni4zNjQ0MTA0MDAzOTA2MiA3Ny4zMjgzMDA0NzYwNzQyMiA3MS4xMjU0MzQ4NzU0ODgyOCA3OS41NDQyMTIzNDEzMDg1OSBDIDY1LjcwMzUyMTcyODUxNTYyIDgxLjgzNzUwMTUyNTg3ODkxIDU5Ljk0MTY4MDkwODIwMzEyIDgzLjAwMDMwNTE3NTc4MTI1IDUzLjk5OTk5NjE4NTMwMjczIDgzLjAwMDMwNTE3NTc4MTI1IFoiIHN0cm9rZT0ibm9uZSIvPiYjeGE7ICAgICAgICA8cGF0aCBkPSJNIDU0LjAwMDAwNzYyOTM5NDUzIDc5LjAwMDMwNTE3NTc4MTI1IEMgNzYuMDU1OTIzNDYxOTE0MDYgNzkuMDAwMzA1MTc1NzgxMjUgOTMuOTk5NzEwMDgzMDA3ODEgNjEuMDU2MTAyNzUyNjg1NTUgOTMuOTk5NzEwMDgzMDA3ODEgMzguOTk5NzAyNDUzNjEzMjggQyA5My45OTk3MTAwODMwMDc4MSAzNS4xMTIxMjkyMTE0MjU3OCA5My40NTA4OTcyMTY3OTY4OCAzMS4zMDMxMzg3MzI5MTAxNiA5Mi4zNjUwNTg4OTg5MjU3OCAyNy42MzQ2NjA3MjA4MjUyIEMgODguNjk2NTcxMzUwMDk3NjYgMjYuNTQ4ODIwNDk1NjA1NDcgODQuODg3NTczMjQyMTg3NSAyNi4wMDAwMDE5MDczNDg2MyA4MS4wMDAwMDc2MjkzOTQ1MyAyNi4wMDAwMDE5MDczNDg2MyBDIDU4Ljk0NDA5MTc5Njg3NSAyNi4wMDAwMDE5MDczNDg2MyA0MS4wMDAzMDg5OTA0Nzg1MiA0My45NDM3ODY2MjEwOTM3NSA0MS4wMDAzMDg5OTA0Nzg1MiA2NS45OTk3MDI0NTM2MTMyOCBDIDQxLjAwMDMwODk5MDQ3ODUyIDY5Ljg4Nzc0MTA4ODg2NzE5IDQxLjU0OTA1NzAwNjgzNTk0IDczLjY5NjYzMjM4NTI1MzkxIDQyLjYzNTE0MzI4MDAyOTMgNzcuMzY1NzA3Mzk3NDYwOTQgQyA0Ni4zMDM1NjU5NzkwMDM5MSA3OC40NTE1MjI4MjcxNDg0NCA1MC4xMTI0NDU4MzEyOTg4MyA3OS4wMDAzMDUxNzU3ODEyNSA1NC4wMDAwMDc2MjkzOTQ1MyA3OS4wMDAzMDUxNzU3ODEyNSBNIDU0LjAwMDAwNzYyOTM5NDUzIDg3LjAwMDMwNTE3NTc4MTI1IEMgNDcuNzY3NDI1NTM3MTA5MzggODcuMDAwMzA1MTc1NzgxMjUgNDEuODEzNDA3ODk3OTQ5MjIgODUuODEyODA1MTc1NzgxMjUgMzYuMzQ5NzU4MTQ4MTkzMzYgODMuNjUxMDg0ODk5OTAyMzQgQyAzNC4xODgwNTY5NDU4MDA3OCA3OC4xODczMTY4OTQ1MzEyNSAzMy4wMDAzMDg5OTA0Nzg1MiA3Mi4yMzI0ODI5MTAxNTYyNSAzMy4wMDAzMDg5OTA0Nzg1MiA2NS45OTk3MDI0NTM2MTMyOCBDIDMzLjAwMDMwODk5MDQ3ODUyIDM5LjQ5MDIwMzg1NzQyMTg4IDU0LjQ5MDUwOTAzMzIwMzEyIDE4LjAwMDAwMTkwNzM0ODYzIDgxLjAwMDAwNzYyOTM5NDUzIDE4LjAwMDAwMTkwNzM0ODYzIEMgODcuMjMyNTg5NzIxNjc5NjkgMTguMDAwMDAxOTA3MzQ4NjMgOTMuMTg2Nzc1MjA3NTE5NTMgMTkuMTg3NTY4NjY0NTUwNzggOTguNjUwNDIxMTQyNTc4MTIgMjEuMzQ5Mjg1MTI1NzMyNDIgQyAxMDAuODEyMTQxNDE4NDU3IDI2LjgxMjkxOTYxNjY5OTIyIDEwMS45OTk3MTAwODMwMDc4IDMyLjc2NzEyMDM2MTMyODEyIDEwMS45OTk3MTAwODMwMDc4IDM4Ljk5OTcwMjQ1MzYxMzI4IEMgMTAxLjk5OTcxMDA4MzAwNzggNjUuNTEwMTAxMzE4MzU5MzggODAuNTA5NDkwOTY2Nzk2ODggODcuMDAwMzA1MTc1NzgxMjUgNTQuMDAwMDA3NjI5Mzk0NTMgODcuMDAwMzA1MTc1NzgxMjUgWiIgc3Ryb2tlPSJub25lIiBmaWxsPSIjMzMzIi8+JiN4YTsgICAgICA8L2c+JiN4YTsgICAgICA8ZyBpZD0iVW5pb24iIHRyYW5zZm9ybT0idHJhbnNsYXRlKDYwMiA0NzQpIiBmaWxsPSJub25lIj4mI3hhOyAgICAgICAgPHBhdGggZD0iTTM2LjM1LDgzLjY1MWE0OC4wMDgsNDguMDA4LDAsMSwxLDYyLjMtNjIuMyw0OC4wMDgsNDguMDA4LDAsMSwxLTYyLjMsNjIuM1oiIHN0cm9rZT0ibm9uZSIvPiYjeGE7ICAgICAgICA8cGF0aCBkPSJNIDgxLjAwMDAwNzYyOTM5NDUzIDEwNi4wMDAzMjA0MzQ1NzAzIEMgMTAzLjA1NTkzODcyMDcwMzEgMTA2LjAwMDMyMDQzNDU3MDMgMTIwLjk5OTcyNTM0MTc5NjkgODguMDU2MTA2NTY3MzgyODEgMTIwLjk5OTcyNTM0MTc5NjkgNjUuOTk5NzAyNDUzNjEzMjggQyAxMjAuOTk5NzI1MzQxNzk2OSA0OS40NzM2NTE4ODU5ODYzMyAxMTEuMDcxODE1NDkwNzIyNyAzNC44NjcyNDg1MzUxNTYyNSA5NS43MDcxNzYyMDg0OTYwOSAyOC43ODgxNzU1ODI4ODU3NCBMIDkyLjQ4NTk4NDgwMjI0NjA5IDI3LjUxMzcwMDQ4NTIyOTQ5IEwgOTEuMjExNTA5NzA0NTg5ODQgMjQuMjkyNTA5MDc4OTc5NDkgQyA4NS4xMzI0Mzg2NTk2Njc5NyA4LjkyNzkxNDYxOTQ0NTgwMSA3MC41MjYwNTQzODIzMjQyMiAtMC45OTk5OTAyODQ0NDI5MDE2IDU0LjAwMDAwNzYyOTM5NDUzIC0wLjk5OTk5MDI4NDQ0MjkwMTYgQyAzMS45NDQwNzg0NDU0MzQ1NyAtMC45OTk5OTAyODQ0NDI5MDE2IDE0LjAwMDI5MzczMTY4OTQ1IDE2Ljk0Mzc5NjE1NzgzNjkxIDE0LjAwMDI5MzczMTY4OTQ1IDM4Ljk5OTY5ODYzODkxNjAyIEMgMTQuMDAwMjkzNzMxNjg5NDUgNTUuNTI2MjQ4OTMxODg0NzcgMjMuOTI4MjcwMzM5OTY1ODIgNzAuMTMzMDEwODY0MjU3ODEgMzkuMjkzMDA2ODk2OTcyNjYgNzYuMjEyMTczNDYxOTE0MDYgTCA0Mi41MTQyNDQwNzk1ODk4NCA3Ny40ODY2NzkwNzcxNDg0NCBMIDQzLjc4ODY5NjI4OTA2MjUgODAuNzA3OTE2MjU5NzY1NjIgQyA0OS44Njc2MDMzMDIwMDE5NSA5Ni4wNzI0NjM5ODkyNTc4MSA2NC40NzM5MTUxMDAwOTc2NiAxMDYuMDAwMzIwNDM0NTcwMyA4MS4wMDAwMDc2MjkzOTQ1MyAxMDYuMDAwMzIwNDM0NTcwMyBNIDgxLjAwMDAwNzYyOTM5NDUzIDExNC4wMDAzMjA0MzQ1NzAzIEMgNjAuNzIzMDc5NjgxMzk2NDggMTE0LjAwMDMyMDQzNDU3MDMgNDMuMzgyNjI1NTc5ODMzOTggMTAxLjQyNjc1MDE4MzEwNTUgMzYuMzQ5NzY5NTkyMjg1MTYgODMuNjUxMDg0ODk5OTAyMzQgQyAxOC41NzQ0ODM4NzE0NTk5NiA3Ni42MTgxNzkzMjEyODkwNiA2LjAwMDI5MzI1NDg1MjI5NSA1OS4yNzczMjA4NjE4MTY0MSA2LjAwMDI5MzI1NDg1MjI5NSAzOC45OTk2OTg2Mzg5MTYwMiBDIDYuMDAwMjkzMjU0ODUyMjk1IDEyLjQ5MDIwMDA0MjcyNDYxIDI3LjQ5MDUwNzEyNTg1NDQ5IC04Ljk5OTk5MDQ2MzI1NjgzNiA1NC4wMDAwMDc2MjkzOTQ1MyAtOC45OTk5OTA0NjMyNTY4MzYgQyA3NC4yNzY5MzkzOTIwODk4NCAtOC45OTk5OTA0NjMyNTY4MzYgOTEuNjE3NTUzNzEwOTM3NSAzLjU3NDAwOTY1NjkwNjEyOCA5OC42NTA0MTM1MTMxODM1OSAyMS4zNDkyNzE3NzQyOTE5OSBDIDExNi40MjU2OTczMjY2NjAyIDI4LjM4MjEyOTY2OTE4OTQ1IDEyOC45OTk3MjUzNDE3OTY5IDQ1LjcyMjc3MDY5MDkxNzk3IDEyOC45OTk3MjUzNDE3OTY5IDY1Ljk5OTcwMjQ1MzYxMzI4IEMgMTI4Ljk5OTcyNTM0MTc5NjkgOTIuNTEwMTAxMzE4MzU5MzggMTA3LjUwOTUwNjIyNTU4NTkgMTE0LjAwMDMyMDQzNDU3MDMgODEuMDAwMDA3NjI5Mzk0NTMgMTE0LjAwMDMyMDQzNDU3MDMgWiIgc3Ryb2tlPSJub25lIiBmaWxsPSIjMzMzIi8+JiN4YTsgICAgICA8L2c+JiN4YTsgICAgPC9nPiYjeGE7ICAgIDxwYXRoIGlkPSJCb3VuZGVyIiBkPSJNMCwwSDEzOVYxMzlIMFoiIHRyYW5zZm9ybT0idHJhbnNsYXRlKDM4OSAxNDQpIiBmaWxsPSJub25lIi8+JiN4YTsgIDwvZz4mI3hhOzwvc3ZnPg==;labelBackgroundColor=none;labelBorderColor=none;sketch=0;fontColor=#000000;strokeColor=default;fillColor=#333333;gradientColor=none;" parent="S8HlAuciJZGZXTFng0mN-95" vertex="1">
          <mxGeometry x="45" y="25" width="80" height="80" as="geometry" />
        </mxCell>
        <mxCell id="S8HlAuciJZGZXTFng0mN-93" value="Window Loaded" style="text;html=1;strokeColor=none;fillColor=none;align=center;verticalAlign=middle;whiteSpace=wrap;rounded=0;labelBackgroundColor=none;labelBorderColor=none;sketch=0;fontColor=#000000;" parent="S8HlAuciJZGZXTFng0mN-95" vertex="1">
          <mxGeometry width="170" height="30" as="geometry" />
        </mxCell>
        <mxCell id="S8HlAuciJZGZXTFng0mN-96" value="" style="group" parent="1" vertex="1" connectable="0">
          <mxGeometry x="315" y="20" width="170" height="129" as="geometry" />
        </mxCell>
        <mxCell id="S8HlAuciJZGZXTFng0mN-76" value="Broadcast Event - Trigger" style="text;html=1;strokeColor=none;fillColor=none;align=center;verticalAlign=middle;whiteSpace=wrap;rounded=0;labelBackgroundColor=none;labelBorderColor=none;sketch=0;fontColor=#000000;" parent="S8HlAuciJZGZXTFng0mN-96" vertex="1">
          <mxGeometry width="170" height="30" as="geometry" />
        </mxCell>
        <mxCell id="S8HlAuciJZGZXTFng0mN-55" value="Type: Custom Event" style="text;html=1;strokeColor=none;fillColor=none;align=center;verticalAlign=middle;whiteSpace=wrap;rounded=0;labelBackgroundColor=none;labelBorderColor=none;sketch=0;fontColor=#000000;" parent="S8HlAuciJZGZXTFng0mN-96" vertex="1">
          <mxGeometry x="25" y="99" width="120" height="30" as="geometry" />
        </mxCell>
        <mxCell id="S8HlAuciJZGZXTFng0mN-92" value="" style="shape=image;verticalLabelPosition=bottom;verticalAlign=top;imageAspect=0;aspect=fixed;image=data:image/svg+xml,PHN2ZyB4bWxucz0iaHR0cDovL3d3dy53My5vcmcvMjAwMC9zdmciIHdpZHRoPSIxMzkiIGhlaWdodD0iMTM5IiB2aWV3Qm94PSIwIDAgMTM5IDEzOSI+JiN4YTsgIDxnIGlkPSJUcmlnZ2VyIiB0cmFuc2Zvcm09InRyYW5zbGF0ZSgtMzg5IC0xNDQpIj4mI3hhOyAgICA8ZyBpZD0iVHJpZ2dlci0yIiBkYXRhLW5hbWU9IlRyaWdnZXIiIHRyYW5zZm9ybT0idHJhbnNsYXRlKC0yMTEgLTMxMykiPiYjeGE7ICAgICAgPGcgaWQ9IkludGVyc2VjdGlvbiIgdHJhbnNmb3JtPSJ0cmFuc2xhdGUoNjAyIDQ3MykiIGZpbGw9IiMzMzMiPiYjeGE7ICAgICAgICA8cGF0aCBkPSJNIDUzLjk5OTk5NjE4NTMwMjczIDgzLjAwMDMwNTE3NTc4MTI1IEMgNDkuMDAwMjI4ODgxODM1OTQgODMuMDAwMzA1MTc1NzgxMjUgNDQuMTE3MjEwMzg4MTgzNTkgODIuMTc0MTE4MDQxOTkyMTkgMzkuNDU4NzQwMjM0Mzc1IDgwLjU0MjEyMTg4NzIwNzAzIEMgMzcuODI2NjE4MTk0NTgwMDggNzUuODgzMjA5MjI4NTE1NjIgMzcuMDAwMzA4OTkwNDc4NTIgNzAuOTk5Njg3MTk0ODI0MjIgMzcuMDAwMzA4OTkwNDc4NTIgNjUuOTk5NzAyNDUzNjEzMjggQyAzNy4wMDAzMDg5OTA0Nzg1MiA2MC4wNTgwMTM5MTYwMTU2MiAzOC4xNjMwOTM1NjY4OTQ1MyA1NC4yOTYxODgzNTQ0OTIxOSA0MC40NTYzODI3NTE0NjQ4NCA0OC44NzQyNjM3NjM0Mjc3MyBDIDQyLjY3MjI4MzE3MjYwNzQyIDQzLjYzNTI4ODIzODUyNTM5IDQ1Ljg0NTM3MTI0NjMzNzg5IDM4LjkyOTM2MzI1MDczMjQyIDQ5Ljg4NzUxOTgzNjQyNTc4IDM0Ljg4NzIxNDY2MDY0NDUzIEMgNTMuOTI5NjY4NDI2NTEzNjcgMzAuODQ1MDY0MTYzMjA4MDEgNTguNjM1NTgxOTcwMjE0ODQgMjcuNjcxOTc3OTk2ODI2MTcgNjMuODc0NTU3NDk1MTE3MTkgMjUuNDU2MDc3NTc1NjgzNTkgQyA2OS4yOTY0ODU5MDA4Nzg5MSAyMy4xNjI3OTAyOTg0NjE5MSA3NS4wNTgzMTkwOTE3OTY4OCAyMi4wMDAwMDE5MDczNDg2MyA4MC45OTk5OTIzNzA2MDU0NyAyMi4wMDAwMDE5MDczNDg2MyBDIDg1Ljk5OTc3ODc0NzU1ODU5IDIyLjAwMDAwMTkwNzM0ODYzIDkwLjg4MjkwNDA1MjczNDM4IDIyLjgyNjIyNzE4ODExMDM1IDk1LjU0MTQ1MDUwMDQ4ODI4IDI0LjQ1ODI1MDA0NTc3NjM3IEMgOTcuMTczNDg0ODAyMjQ2MDkgMjkuMTE2ODA5ODQ0OTcwNyA5Ny45OTk3MTAwODMwMDc4MSAzMy45OTk5Mjc1MjA3NTE5NSA5Ny45OTk3MTAwODMwMDc4MSAzOC45OTk3MDI0NTM2MTMyOCBDIDk3Ljk5OTcxMDA4MzAwNzgxIDQ0Ljk0MTYxNjA1ODM0OTYxIDk2LjgzNjkwNjQzMzEwNTQ3IDUwLjcwMzYyODU0MDAzOTA2IDk0LjU0MzYxNzI0ODUzNTE2IDU2LjEyNTY5MDQ2MDIwNTA4IEMgOTIuMzI3NzIwNjQyMDg5ODQgNjEuMzY0Nzc2NjExMzI4MTIgODkuMTU0NjE3MzA5NTcwMzEgNjYuMDcwNzkzMTUxODU1NDcgODUuMTEyNDcyNTM0MTc5NjkgNzAuMTEyOTkxMzMzMDA3ODEgQyA4MS4wNzAzMzUzODgxODM1OSA3NC4xNTUxNzQyNTUzNzEwOSA3Ni4zNjQ0MTA0MDAzOTA2MiA3Ny4zMjgzMDA0NzYwNzQyMiA3MS4xMjU0MzQ4NzU0ODgyOCA3OS41NDQyMTIzNDEzMDg1OSBDIDY1LjcwMzUyMTcyODUxNTYyIDgxLjgzNzUwMTUyNTg3ODkxIDU5Ljk0MTY4MDkwODIwMzEyIDgzLjAwMDMwNTE3NTc4MTI1IDUzLjk5OTk5NjE4NTMwMjczIDgzLjAwMDMwNTE3NTc4MTI1IFoiIHN0cm9rZT0ibm9uZSIvPiYjeGE7ICAgICAgICA8cGF0aCBkPSJNIDU0LjAwMDAwNzYyOTM5NDUzIDc5LjAwMDMwNTE3NTc4MTI1IEMgNzYuMDU1OTIzNDYxOTE0MDYgNzkuMDAwMzA1MTc1NzgxMjUgOTMuOTk5NzEwMDgzMDA3ODEgNjEuMDU2MTAyNzUyNjg1NTUgOTMuOTk5NzEwMDgzMDA3ODEgMzguOTk5NzAyNDUzNjEzMjggQyA5My45OTk3MTAwODMwMDc4MSAzNS4xMTIxMjkyMTE0MjU3OCA5My40NTA4OTcyMTY3OTY4OCAzMS4zMDMxMzg3MzI5MTAxNiA5Mi4zNjUwNTg4OTg5MjU3OCAyNy42MzQ2NjA3MjA4MjUyIEMgODguNjk2NTcxMzUwMDk3NjYgMjYuNTQ4ODIwNDk1NjA1NDcgODQuODg3NTczMjQyMTg3NSAyNi4wMDAwMDE5MDczNDg2MyA4MS4wMDAwMDc2MjkzOTQ1MyAyNi4wMDAwMDE5MDczNDg2MyBDIDU4Ljk0NDA5MTc5Njg3NSAyNi4wMDAwMDE5MDczNDg2MyA0MS4wMDAzMDg5OTA0Nzg1MiA0My45NDM3ODY2MjEwOTM3NSA0MS4wMDAzMDg5OTA0Nzg1MiA2NS45OTk3MDI0NTM2MTMyOCBDIDQxLjAwMDMwODk5MDQ3ODUyIDY5Ljg4Nzc0MTA4ODg2NzE5IDQxLjU0OTA1NzAwNjgzNTk0IDczLjY5NjYzMjM4NTI1MzkxIDQyLjYzNTE0MzI4MDAyOTMgNzcuMzY1NzA3Mzk3NDYwOTQgQyA0Ni4zMDM1NjU5NzkwMDM5MSA3OC40NTE1MjI4MjcxNDg0NCA1MC4xMTI0NDU4MzEyOTg4MyA3OS4wMDAzMDUxNzU3ODEyNSA1NC4wMDAwMDc2MjkzOTQ1MyA3OS4wMDAzMDUxNzU3ODEyNSBNIDU0LjAwMDAwNzYyOTM5NDUzIDg3LjAwMDMwNTE3NTc4MTI1IEMgNDcuNzY3NDI1NTM3MTA5MzggODcuMDAwMzA1MTc1NzgxMjUgNDEuODEzNDA3ODk3OTQ5MjIgODUuODEyODA1MTc1NzgxMjUgMzYuMzQ5NzU4MTQ4MTkzMzYgODMuNjUxMDg0ODk5OTAyMzQgQyAzNC4xODgwNTY5NDU4MDA3OCA3OC4xODczMTY4OTQ1MzEyNSAzMy4wMDAzMDg5OTA0Nzg1MiA3Mi4yMzI0ODI5MTAxNTYyNSAzMy4wMDAzMDg5OTA0Nzg1MiA2NS45OTk3MDI0NTM2MTMyOCBDIDMzLjAwMDMwODk5MDQ3ODUyIDM5LjQ5MDIwMzg1NzQyMTg4IDU0LjQ5MDUwOTAzMzIwMzEyIDE4LjAwMDAwMTkwNzM0ODYzIDgxLjAwMDAwNzYyOTM5NDUzIDE4LjAwMDAwMTkwNzM0ODYzIEMgODcuMjMyNTg5NzIxNjc5NjkgMTguMDAwMDAxOTA3MzQ4NjMgOTMuMTg2Nzc1MjA3NTE5NTMgMTkuMTg3NTY4NjY0NTUwNzggOTguNjUwNDIxMTQyNTc4MTIgMjEuMzQ5Mjg1MTI1NzMyNDIgQyAxMDAuODEyMTQxNDE4NDU3IDI2LjgxMjkxOTYxNjY5OTIyIDEwMS45OTk3MTAwODMwMDc4IDMyLjc2NzEyMDM2MTMyODEyIDEwMS45OTk3MTAwODMwMDc4IDM4Ljk5OTcwMjQ1MzYxMzI4IEMgMTAxLjk5OTcxMDA4MzAwNzggNjUuNTEwMTAxMzE4MzU5MzggODAuNTA5NDkwOTY2Nzk2ODggODcuMDAwMzA1MTc1NzgxMjUgNTQuMDAwMDA3NjI5Mzk0NTMgODcuMDAwMzA1MTc1NzgxMjUgWiIgc3Ryb2tlPSJub25lIiBmaWxsPSIjMzMzIi8+JiN4YTsgICAgICA8L2c+JiN4YTsgICAgICA8ZyBpZD0iVW5pb24iIHRyYW5zZm9ybT0idHJhbnNsYXRlKDYwMiA0NzQpIiBmaWxsPSJub25lIj4mI3hhOyAgICAgICAgPHBhdGggZD0iTTM2LjM1LDgzLjY1MWE0OC4wMDgsNDguMDA4LDAsMSwxLDYyLjMtNjIuMyw0OC4wMDgsNDguMDA4LDAsMSwxLTYyLjMsNjIuM1oiIHN0cm9rZT0ibm9uZSIvPiYjeGE7ICAgICAgICA8cGF0aCBkPSJNIDgxLjAwMDAwNzYyOTM5NDUzIDEwNi4wMDAzMjA0MzQ1NzAzIEMgMTAzLjA1NTkzODcyMDcwMzEgMTA2LjAwMDMyMDQzNDU3MDMgMTIwLjk5OTcyNTM0MTc5NjkgODguMDU2MTA2NTY3MzgyODEgMTIwLjk5OTcyNTM0MTc5NjkgNjUuOTk5NzAyNDUzNjEzMjggQyAxMjAuOTk5NzI1MzQxNzk2OSA0OS40NzM2NTE4ODU5ODYzMyAxMTEuMDcxODE1NDkwNzIyNyAzNC44NjcyNDg1MzUxNTYyNSA5NS43MDcxNzYyMDg0OTYwOSAyOC43ODgxNzU1ODI4ODU3NCBMIDkyLjQ4NTk4NDgwMjI0NjA5IDI3LjUxMzcwMDQ4NTIyOTQ5IEwgOTEuMjExNTA5NzA0NTg5ODQgMjQuMjkyNTA5MDc4OTc5NDkgQyA4NS4xMzI0Mzg2NTk2Njc5NyA4LjkyNzkxNDYxOTQ0NTgwMSA3MC41MjYwNTQzODIzMjQyMiAtMC45OTk5OTAyODQ0NDI5MDE2IDU0LjAwMDAwNzYyOTM5NDUzIC0wLjk5OTk5MDI4NDQ0MjkwMTYgQyAzMS45NDQwNzg0NDU0MzQ1NyAtMC45OTk5OTAyODQ0NDI5MDE2IDE0LjAwMDI5MzczMTY4OTQ1IDE2Ljk0Mzc5NjE1NzgzNjkxIDE0LjAwMDI5MzczMTY4OTQ1IDM4Ljk5OTY5ODYzODkxNjAyIEMgMTQuMDAwMjkzNzMxNjg5NDUgNTUuNTI2MjQ4OTMxODg0NzcgMjMuOTI4MjcwMzM5OTY1ODIgNzAuMTMzMDEwODY0MjU3ODEgMzkuMjkzMDA2ODk2OTcyNjYgNzYuMjEyMTczNDYxOTE0MDYgTCA0Mi41MTQyNDQwNzk1ODk4NCA3Ny40ODY2NzkwNzcxNDg0NCBMIDQzLjc4ODY5NjI4OTA2MjUgODAuNzA3OTE2MjU5NzY1NjIgQyA0OS44Njc2MDMzMDIwMDE5NSA5Ni4wNzI0NjM5ODkyNTc4MSA2NC40NzM5MTUxMDAwOTc2NiAxMDYuMDAwMzIwNDM0NTcwMyA4MS4wMDAwMDc2MjkzOTQ1MyAxMDYuMDAwMzIwNDM0NTcwMyBNIDgxLjAwMDAwNzYyOTM5NDUzIDExNC4wMDAzMjA0MzQ1NzAzIEMgNjAuNzIzMDc5NjgxMzk2NDggMTE0LjAwMDMyMDQzNDU3MDMgNDMuMzgyNjI1NTc5ODMzOTggMTAxLjQyNjc1MDE4MzEwNTUgMzYuMzQ5NzY5NTkyMjg1MTYgODMuNjUxMDg0ODk5OTAyMzQgQyAxOC41NzQ0ODM4NzE0NTk5NiA3Ni42MTgxNzkzMjEyODkwNiA2LjAwMDI5MzI1NDg1MjI5NSA1OS4yNzczMjA4NjE4MTY0MSA2LjAwMDI5MzI1NDg1MjI5NSAzOC45OTk2OTg2Mzg5MTYwMiBDIDYuMDAwMjkzMjU0ODUyMjk1IDEyLjQ5MDIwMDA0MjcyNDYxIDI3LjQ5MDUwNzEyNTg1NDQ5IC04Ljk5OTk5MDQ2MzI1NjgzNiA1NC4wMDAwMDc2MjkzOTQ1MyAtOC45OTk5OTA0NjMyNTY4MzYgQyA3NC4yNzY5MzkzOTIwODk4NCAtOC45OTk5OTA0NjMyNTY4MzYgOTEuNjE3NTUzNzEwOTM3NSAzLjU3NDAwOTY1NjkwNjEyOCA5OC42NTA0MTM1MTMxODM1OSAyMS4zNDkyNzE3NzQyOTE5OSBDIDExNi40MjU2OTczMjY2NjAyIDI4LjM4MjEyOTY2OTE4OTQ1IDEyOC45OTk3MjUzNDE3OTY5IDQ1LjcyMjc3MDY5MDkxNzk3IDEyOC45OTk3MjUzNDE3OTY5IDY1Ljk5OTcwMjQ1MzYxMzI4IEMgMTI4Ljk5OTcyNTM0MTc5NjkgOTIuNTEwMTAxMzE4MzU5MzggMTA3LjUwOTUwNjIyNTU4NTkgMTE0LjAwMDMyMDQzNDU3MDMgODEuMDAwMDA3NjI5Mzk0NTMgMTE0LjAwMDMyMDQzNDU3MDMgWiIgc3Ryb2tlPSJub25lIiBmaWxsPSIjMzMzIi8+JiN4YTsgICAgICA8L2c+JiN4YTsgICAgPC9nPiYjeGE7ICAgIDxwYXRoIGlkPSJCb3VuZGVyIiBkPSJNMCwwSDEzOVYxMzlIMFoiIHRyYW5zZm9ybT0idHJhbnNsYXRlKDM4OSAxNDQpIiBmaWxsPSJub25lIi8+JiN4YTsgIDwvZz4mI3hhOzwvc3ZnPg==;labelBackgroundColor=none;labelBorderColor=none;sketch=0;fontColor=#000000;strokeColor=default;fillColor=#333333;gradientColor=none;" parent="S8HlAuciJZGZXTFng0mN-96" vertex="1">
          <mxGeometry x="45" y="25" width="80" height="80" as="geometry" />
        </mxCell>
        <mxCell id="S8HlAuciJZGZXTFng0mN-100" value="" style="group" parent="1" vertex="1" connectable="0">
          <mxGeometry x="540" y="20" width="180" height="130.25" as="geometry" />
        </mxCell>
        <mxCell id="S8HlAuciJZGZXTFng0mN-40" value="Type: Google Analytics: Universal Analytics" style="text;html=1;strokeColor=none;fillColor=none;align=center;verticalAlign=middle;whiteSpace=wrap;rounded=0;sketch=1;" parent="S8HlAuciJZGZXTFng0mN-100" vertex="1">
          <mxGeometry y="106.25" width="180" height="30" as="geometry" />
        </mxCell>
        <mxCell id="S8HlAuciJZGZXTFng0mN-41" value="Broadcast Event" style="text;html=1;strokeColor=none;fillColor=none;align=center;verticalAlign=middle;whiteSpace=wrap;rounded=0;sketch=1;" parent="S8HlAuciJZGZXTFng0mN-100" vertex="1">
          <mxGeometry x="10" width="160" height="30" as="geometry" />
        </mxCell>
        <mxCell id="S8HlAuciJZGZXTFng0mN-99" value="" style="shape=image;verticalLabelPosition=bottom;verticalAlign=top;imageAspect=0;aspect=fixed;image=data:image/svg+xml,PHN2ZyB4bWxucz0iaHR0cDovL3d3dy53My5vcmcvMjAwMC9zdmciIHdpZHRoPSIxMzkiIGhlaWdodD0iMTM5IiB2aWV3Qm94PSIwIDAgMTM5IDEzOSI+JiN4YTsgIDxnIGlkPSJHVE0iIHRyYW5zZm9ybT0idHJhbnNsYXRlKC02NzIgLTgwKSI+JiN4YTsgICAgPGcgaWQ9IkdUTS0yIiBkYXRhLW5hbWU9IkdUTSIgdHJhbnNmb3JtPSJ0cmFuc2xhdGUoNjc5Ljk5NyA4OC4wMDIpIj4mI3hhOyAgICAgIDxwYXRoIGlkPSJQYXRoXzEiIGRhdGEtbmFtZT0iUGF0aCAxIiBkPSJNNzIuMTMsMTE4LjIyLDUwLjgsOTYuODZsNDUuODMtNDYuMywyMS43MiwyMS43Mkw3Mi4xMywxMTguMjJaIiB0cmFuc2Zvcm09InRyYW5zbGF0ZSgwLjEzMyAwLjEwOCkiIGZpbGw9IiM4YWI0ZjgiLz4mI3hhOyAgICAgIDxwYXRoIGlkPSJQYXRoXzIiIGRhdGEtbmFtZT0iUGF0aCAyIiBkPSJNNzIuMjksMjYuMjUxLDUwLjU2LDQuNSw0LjUsNTAuNmExNS4zNzUsMTUuMzc1LDAsMCwwLDAsMjEuNzMxaDBsNDYuMDYsNDYuMSwyMS4zMS0yMS40MkwzNy4wNyw2MS41WiIgdHJhbnNmb3JtPSJ0cmFuc2xhdGUoMCAwKSIgZmlsbD0iIzQyODVmNCIvPiYjeGE7ICAgICAgPHBhdGggaWQ9IlBhdGhfMyIgZGF0YS1uYW1lPSJQYXRoIDMiIGQ9Ik0xMTguMzUsNTAuNTYsNzIuMjksNC41QTE1LjM2MiwxNS4zNjIsMCwxLDAsNTAuNTYsMjYuMjJMOTYuNjUsNzIuMjhhMTUuMzU5LDE1LjM1OSwwLDEsMCwyMS43MjEtMjEuNzIxWiIgdHJhbnNmb3JtPSJ0cmFuc2xhdGUoMC4xMzMpIiBmaWxsPSIjOGFiNGY4Ii8+JiN4YTsgICAgICA8cGF0aCBpZD0iUGF0aF80IiBkYXRhLW5hbWU9IlBhdGggNCIgZD0iTTc2LjQ4LDEwNy42NmExNS4yMywxNS4yMywwLDEsMC0xNS4yMiwxNS4yMywxNS4yMywxNS4yMywwLDAsMCwxNS4yMi0xNS4yM1oiIHRyYW5zZm9ybT0idHJhbnNsYXRlKDAuMDY2IDAuMTA4KSIgZmlsbD0iIzI0NmZkYiIvPiYjeGE7ICAgIDwvZz4mI3hhOyAgICA8cmVjdCBpZD0iQm91bmRlciIgd2lkdGg9IjEzOSIgaGVpZ2h0PSIxMzkiIHRyYW5zZm9ybT0idHJhbnNsYXRlKDY3MiA4MCkiIGZpbGw9Im5vbmUiLz4mI3hhOyAgPC9nPiYjeGE7PC9zdmc+;labelBackgroundColor=none;labelBorderColor=none;sketch=0;fontColor=#000000;strokeColor=default;fillColor=#333333;gradientColor=none;" parent="S8HlAuciJZGZXTFng0mN-100" vertex="1">
          <mxGeometry x="50" y="25" width="80" height="80" as="geometry" />
        </mxCell>
        <mxCell id="S8HlAuciJZGZXTFng0mN-102" value="" style="group" parent="1" vertex="1" connectable="0">
          <mxGeometry x="800" y="44.5" width="130" height="104.5" as="geometry" />
        </mxCell>
        <mxCell id="S8HlAuciJZGZXTFng0mN-59" value="Google Analytics" style="text;html=1;strokeColor=none;fillColor=none;align=center;verticalAlign=middle;whiteSpace=wrap;rounded=0;labelBackgroundColor=none;labelBorderColor=none;sketch=0;fontColor=#000000;" parent="S8HlAuciJZGZXTFng0mN-102" vertex="1">
          <mxGeometry y="74.5" width="130" height="30" as="geometry" />
        </mxCell>
        <mxCell id="S8HlAuciJZGZXTFng0mN-101" value="" style="shape=image;verticalLabelPosition=bottom;verticalAlign=top;imageAspect=0;aspect=fixed;image=data:image/svg+xml,PHN2ZyB4bWxucz0iaHR0cDovL3d3dy53My5vcmcvMjAwMC9zdmciIHdpZHRoPSIxMjQuODQ5OTc1NTg1OTM3NSIgaGVpZ2h0PSIxMzkiIHZpZXdCb3g9IjAgMCAxMjQuODQ5OTc1NTg1OTM3NSAxMzkiPiYjeGE7ICA8ZyBpZD0iR0EiIHRyYW5zZm9ybT0idHJhbnNsYXRlKC0xMDQ4IC0yMDgpIj4mI3hhOyAgICA8cmVjdCBpZD0iQm91bmRlciIgd2lkdGg9IjEyNC44NSIgaGVpZ2h0PSIxMzkiIHRyYW5zZm9ybT0idHJhbnNsYXRlKDEwNDggMjA4KSIgZmlsbD0ibm9uZSIvPiYjeGE7ICAgIDxnIGlkPSJHQS0yIiBkYXRhLW5hbWU9IkdBIiB0cmFuc2Zvcm09InRyYW5zbGF0ZSg0NDYgMTU3KSI+JiN4YTsgICAgICA8Y2lyY2xlIGlkPSJFbGxpcHNlXzUiIGRhdGEtbmFtZT0iRWxsaXBzZSA1IiBjeD0iMTQiIGN5PSIxNCIgcj0iMTQiIHRyYW5zZm9ybT0idHJhbnNsYXRlKDYxMCAxNTIpIiBmaWxsPSIjZTM3NDAwIi8+JiN4YTsgICAgICA8cmVjdCBpZD0iUmVjdGFuZ2xlXzIiIGRhdGEtbmFtZT0iUmVjdGFuZ2xlIDIiIHdpZHRoPSIyOCIgaGVpZ2h0PSI2OS44NTYiIHJ4PSIxNCIgdHJhbnNmb3JtPSJ0cmFuc2xhdGUoNjUwLjU0NSAxMTAuMzE2KSIgZmlsbD0iI2UzNzQwMCIvPiYjeGE7ICAgICAgPHJlY3QgaWQ9IlJlY3RhbmdsZV8zIiBkYXRhLW5hbWU9IlJlY3RhbmdsZSAzIiB3aWR0aD0iMjgiIGhlaWdodD0iMTIxLjIzNyIgcng9IjE0IiB0cmFuc2Zvcm09InRyYW5zbGF0ZSg2OTAuOTQ4IDU5KSIgZmlsbD0iI2Y5YWIwMCIvPiYjeGE7ICAgIDwvZz4mI3hhOyAgPC9nPiYjeGE7PC9zdmc+;labelBackgroundColor=none;labelBorderColor=none;sketch=0;fontColor=#000000;strokeColor=default;fillColor=#333333;gradientColor=none;" parent="S8HlAuciJZGZXTFng0mN-102" vertex="1">
          <mxGeometry x="29.02999999999986" width="71.94" height="80" as="geometry" />
        </mxCell>
      </root>
    </mxGraphModel>
  </diagram>
</mxfile>
